<svg width="15" height="16" viewBox="0 0 15 16" fill="none" xmlns="http://www.w3.org/2000/svg">
<g id="carbon:password">
<path id="Vector" d="M9.84375 1.4375C9.18497 1.43735 8.53531 1.59152 7.94683 1.88764C7.35836 2.18377 6.84743 2.61363 6.455 3.14277C6.06256 3.67191 5.79953 4.28562 5.68698 4.93472C5.57443 5.58382 5.61549 6.25025 5.80687 6.88063L0.9375 11.75V14.5625H3.75L8.61938 9.69312C9.19964 9.86926 9.81106 9.91823 10.412 9.83669C11.0129 9.75516 11.5891 9.54503 12.1015 9.22064C12.6138 8.89626 13.0502 8.46522 13.3809 7.95692C13.7116 7.44862 13.9289 6.875 14.0178 6.27515C14.1068 5.67531 14.0654 5.06333 13.8965 4.48093C13.7275 3.89853 13.435 3.35939 13.0388 2.90026C12.6427 2.44114 12.1522 2.07281 11.6008 1.82038C11.0495 1.56795 10.4502 1.43736 9.84375 1.4375ZM9.84375 8.9375C9.52102 8.93732 9.20008 8.88962 8.89125 8.79594L8.35359 8.63281L7.95656 9.02984L6.46547 10.5209L5.81906 9.875L5.15625 10.5378L5.80266 11.1842L5.05922 11.9277L4.41281 11.2812L3.75 11.9441L4.39641 12.5905L3.36187 13.625H1.875V12.1381L6.46969 7.54344L6.86719 7.14641L6.70406 6.60875C6.50371 5.94828 6.51673 5.24145 6.74126 4.5888C6.96579 3.93615 7.39041 3.37092 7.95471 2.97351C8.519 2.57611 9.19425 2.36676 9.88439 2.37525C10.5745 2.38374 11.2444 2.60964 11.7988 3.02081C12.3531 3.43198 12.7637 4.00748 12.9721 4.66545C13.1805 5.32343 13.1761 6.03037 12.9596 6.68571C12.7431 7.34105 12.3254 7.91143 11.766 8.3157C11.2066 8.71997 10.5339 8.93756 9.84375 8.9375Z" fill="#A9A3A3"/>
<path id="Vector_2" d="M10.3125 6.125C10.8303 6.125 11.25 5.70527 11.25 5.1875C11.25 4.66973 10.8303 4.25 10.3125 4.25C9.79473 4.25 9.375 4.66973 9.375 5.1875C9.375 5.70527 9.79473 6.125 10.3125 6.125Z" fill="#A9A3A3"/>
</g>
</svg>
