<svg width="12" height="14" viewBox="0 0 12 14" fill="none" xmlns="http://www.w3.org/2000/svg">
<path id="Vector" d="M5.625 2C5.04484 2 4.48844 2.23047 4.0782 2.6407C3.66797 3.05094 3.4375 3.60734 3.4375 4.1875C3.4375 4.76766 3.66797 5.32406 4.0782 5.7343C4.48844 6.14453 5.04484 6.375 5.625 6.375C6.20516 6.375 6.76156 6.14453 7.1718 5.7343C7.58203 5.32406 7.8125 4.76766 7.8125 4.1875C7.8125 3.60734 7.58203 3.05094 7.1718 2.6407C6.76156 2.23047 6.20516 2 5.625 2ZM2.1875 4.1875C2.1875 3.27582 2.54966 2.40148 3.19432 1.75682C3.83898 1.11216 4.71332 0.75 5.625 0.75C6.53668 0.75 7.41102 1.11216 8.05568 1.75682C8.70034 2.40148 9.0625 3.27582 9.0625 4.1875C9.0625 5.09918 8.70034 5.97352 8.05568 6.61818C7.41102 7.26284 6.53668 7.625 5.625 7.625C4.71332 7.625 3.83898 7.26284 3.19432 6.61818C2.54966 5.97352 2.1875 5.09918 2.1875 4.1875ZM0 11.375C0 10.5462 0.32924 9.75134 0.915291 9.16529C1.50134 8.57924 2.2962 8.25 3.125 8.25H8.125C8.9538 8.25 9.74866 8.57924 10.3347 9.16529C10.9208 9.75134 11.25 10.5462 11.25 11.375V13.25H0V11.375ZM3.125 9.5C2.62772 9.5 2.15081 9.69754 1.79917 10.0492C1.44754 10.4008 1.25 10.8777 1.25 11.375V12H10V11.375C10 10.8777 9.80246 10.4008 9.45083 10.0492C9.09919 9.69754 8.62228 9.5 8.125 9.5H3.125Z" fill="#A9A3A3"/>
</svg>
