<svg width="35" height="40" viewBox="0 0 35 40" fill="none" xmlns="http://www.w3.org/2000/svg">
<g id="mdi:instagram">
<path id="Vector" d="M11.3753 3.3335H23.6253C28.292 3.3335 32.0836 7.66683 32.0836 13.0002V27.0002C32.0836 29.5639 31.1925 32.0227 29.6063 33.8355C28.02 35.6484 25.8686 36.6668 23.6253 36.6668H11.3753C6.70866 36.6668 2.91699 32.3335 2.91699 27.0002V13.0002C2.91699 10.4364 3.80814 7.97765 5.39438 6.1648C6.98062 4.35195 9.13203 3.3335 11.3753 3.3335ZM11.0837 6.66683C9.69127 6.66683 8.35591 7.29897 7.37135 8.42419C6.38678 9.54941 5.83366 11.0755 5.83366 12.6668V27.3335C5.83366 30.6502 8.18157 33.3335 11.0837 33.3335H23.917C25.3094 33.3335 26.6447 32.7014 27.6293 31.5761C28.6139 30.4509 29.167 28.9248 29.167 27.3335V12.6668C29.167 9.35016 26.8191 6.66683 23.917 6.66683H11.0837ZM25.1566 9.16683C25.64 9.16683 26.1037 9.38632 26.4456 9.77702C26.7874 10.1677 26.9795 10.6976 26.9795 11.2502C26.9795 11.8027 26.7874 12.3326 26.4456 12.7233C26.1037 13.114 25.64 13.3335 25.1566 13.3335C24.6731 13.3335 24.2094 13.114 23.8676 12.7233C23.5257 12.3326 23.3337 11.8027 23.3337 11.2502C23.3337 10.6976 23.5257 10.1677 23.8676 9.77702C24.2094 9.38632 24.6731 9.16683 25.1566 9.16683ZM17.5003 11.6668C19.4342 11.6668 21.2889 12.5448 22.6563 14.1076C24.0238 15.6704 24.792 17.79 24.792 20.0002C24.792 22.2103 24.0238 24.3299 22.6563 25.8927C21.2889 27.4555 19.4342 28.3335 17.5003 28.3335C15.5665 28.3335 13.7118 27.4555 12.3443 25.8927C10.9769 24.3299 10.2087 22.2103 10.2087 20.0002C10.2087 17.79 10.9769 15.6704 12.3443 14.1076C13.7118 12.5448 15.5665 11.6668 17.5003 11.6668ZM17.5003 15.0002C16.34 15.0002 15.2272 15.5269 14.4067 16.4646C13.5863 17.4023 13.1253 18.6741 13.1253 20.0002C13.1253 21.3262 13.5863 22.598 14.4067 23.5357C15.2272 24.4734 16.34 25.0002 17.5003 25.0002C18.6606 25.0002 19.7734 24.4734 20.5939 23.5357C21.4144 22.598 21.8753 21.3262 21.8753 20.0002C21.8753 18.6741 21.4144 17.4023 20.5939 16.4646C19.7734 15.5269 18.6606 15.0002 17.5003 15.0002Z" fill="#E6E6E6"/>
</g>
</svg>
