<svg width="88" height="91" viewBox="0 0 88 91" fill="none" xmlns="http://www.w3.org/2000/svg">
<path id="Vector" d="M51.1262 77.7146C51.4875 78.2856 50.4994 78.7683 50.1381 78.1973C49.3854 77.0101 48.6281 75.8255 47.8383 74.657V89.4153C47.8383 91.5283 44.1851 91.5282 44.1851 89.4153V78.5888L42.7711 77.781C42.1181 77.4079 41.8929 77.4149 42.7406 77.3996L44.1851 77.3734V70.0685C44.1851 69.5575 44.2606 69.7413 43.9424 69.3357C40.7227 65.2315 36.0862 61.1321 33.5183 57.0603C32.0137 54.6746 31.6511 53.2364 31.7358 50.4006C31.8049 48.0847 32.5304 42.6254 33.9711 40.6644C34.671 39.7118 35.6866 39.0973 37.4284 38.5952C38.6091 36.6734 40.817 34.5681 42.849 32.6308C43.3247 32.1771 43.7913 31.7323 44.1851 31.349V28.2193L42.5259 27.2713C42.081 27.0256 42.0031 27.0509 42.5516 27.041L44.1849 27.0114L44.1851 22.0414C42.3957 24.0003 39.7134 23.7131 37.0599 23.4286C36.3291 23.3503 35.6007 23.2721 34.9387 23.2484C34.7069 23.2401 34.4606 23.2656 34.2385 23.2032C33.694 23.05 33.5702 22.7669 33.8627 21.9639C34.2586 20.8772 35.3272 20.9126 36.6996 20.9581C37.9288 20.9988 39.4808 21.0499 40.7719 20.0001C37.0506 19.8746 33.6618 18.6413 31.184 16.1504C30.4518 15.4143 30.2971 15.0122 30.6658 14.7291C30.9966 14.4751 31.3978 14.6326 32.0082 14.8724C33.8408 15.5916 35.8607 16.2293 37.8522 16.5019C37.0352 14.7232 36.8878 12.7928 36.4638 10.9299C35.7407 10.7051 35.1902 10.3638 34.8075 9.94895C33.7973 8.85389 34.0274 7.3345 34.9706 6.27155C35.2805 5.92228 35.5973 5.56525 35.6517 4.02893C35.7088 2.41643 36.7107 1.54247 38.1349 1.08071C39.4154 0.665507 41.0343 0.612504 42.565 0.638338C45.0063 -0.332806 48.1535 -0.190004 50.4606 1.02676C54.2247 1.13031 60.3398 3.79756 57.2791 7.51657C56.8515 8.03623 56.3692 8.25531 56.0133 8.85132C55.4983 9.71376 55.2716 10.9715 55.0297 12.3141C54.7776 13.7134 54.5101 15.1954 53.9026 16.5035C54.6974 16.4013 55.5719 16.2361 56.4654 16.0192C57.6495 15.7319 58.8701 15.3536 59.9884 14.9106C60.392 14.7506 61.0216 14.4249 61.4191 14.727C61.7895 15.0083 61.6381 15.4103 60.9117 16.1485C59.546 17.5364 57.938 18.5003 56.2142 19.1186C54.6816 19.6684 53.0579 19.9435 51.4327 19.9998C52.7239 21.05 54.2762 20.9988 55.5056 20.9581C56.8779 20.9126 57.9466 20.8772 58.3424 21.9639C58.75 23.0826 58.3524 23.2095 57.2665 23.2484C56.6045 23.2721 55.8761 23.3503 55.1453 23.4286C52.4003 23.7229 49.6244 24.0199 47.8383 21.8303V28.4719C48.587 28.2288 49.3199 28.2849 49.9715 28.7207C52.0735 30.1265 50.5298 31.9727 49.1126 33.6676C48.6774 34.1882 48.2655 34.7181 47.8382 35.243L47.8383 37.5826C48.2359 37.5807 48.5998 37.584 48.9192 37.5923C51.42 37.6574 55.0481 39.8998 52.6475 42.0448C53.6978 43.0408 54.2179 45.0639 54.6687 46.8182C55.6279 50.551 55.6746 52.3265 55.2449 56.1765C55.0608 57.8256 54.8766 59.5598 55.005 61.2165C55.2292 64.1071 56.367 67.1187 59.9626 70.5013C60.4697 70.9801 59.6411 71.6576 59.134 71.1788C56.0758 68.3018 54.6931 65.6903 54.1409 63.2011C54.0451 63.4184 53.9411 63.6217 53.8286 63.8096C53.683 64.0525 53.3407 64.1458 53.0642 64.0179C52.7877 63.8899 52.6816 63.5892 52.8272 63.3463C53.146 62.814 53.3892 62.1168 53.5645 61.3001C53.9211 59.6388 53.9288 57.7904 54.1194 56.083C54.5347 52.3618 54.489 50.6299 53.5654 47.0362C53.1189 45.2988 52.5969 43.2683 51.7069 42.6157C50.5047 43.1107 49.1343 43.0507 47.8383 43.0653V44.046C48.8687 44.3026 50.4625 45.0855 51.7424 45.9894C53.7504 47.4077 54.3214 50.1869 51.2347 50.2227C50.5946 50.2301 49.8803 50.0828 49.2248 49.8546C49.8151 50.3303 50.349 50.9555 50.7974 51.7795C51.3375 52.772 51.6398 53.5221 51.6757 54.1257C51.7957 56.1444 49.453 56.2408 47.8383 55.6807V63.1892L49.3685 63.2169C50.2755 63.2334 50.0874 63.2085 49.3735 63.6165L47.8719 64.4744C47.7978 64.5166 47.8383 71.998 47.8383 72.7421C48.9883 74.3733 50.0637 76.0387 51.1262 77.7146ZM20.9635 55.4501C20.6911 55.1401 21.2281 54.7757 21.5006 55.0856C23.4663 57.3105 23.0458 60.3971 21.5507 62.7208C21.3322 63.0618 20.7419 62.77 20.9604 62.4288C22.3187 60.3179 22.7575 57.4806 20.9635 55.4501ZM11.341 59.6237C11.172 60.2612 10.0686 60.0354 10.2377 59.3979C10.4131 58.7393 10.5502 58.0749 10.7968 57.4321C3.67018 55.0159 -1.53895 61.0208 2.60006 65.6764C4.72599 68.0677 9.38289 69.7959 17.4631 69.0638C21.1587 66.5433 24.4882 62.8685 24.4744 58.5674C24.4606 54.2709 20.162 49.9102 15.4667 53.1124C13.048 54.762 12.0086 57.1179 11.341 59.6237ZM11.2315 56.514C12.2669 54.5685 13.4895 53.2031 14.7755 52.326C20.2308 48.6053 25.5877 53.4111 25.6043 58.5674C25.6194 63.2346 22.0693 67.21 18.0357 69.9316C17.9504 69.992 17.8476 70.0287 17.7393 70.0386C9.10336 70.8507 4.0604 68.9321 1.70941 66.2876C-3.12134 60.8539 2.99283 53.6977 11.2315 56.514ZM84.341 43.4667C84.4458 43.0857 85.1052 43.2258 85.0003 43.6069C84.1914 46.5261 80.977 48.2679 77.7761 48.7142C77.3354 48.7756 77.2292 48.1869 77.6698 48.1255C80.5951 47.7177 83.5983 46.147 84.341 43.4667ZM74.8591 38.4556C74.2559 38.8371 73.5956 38.0312 74.1989 37.6497C74.6583 37.3584 75.1513 37.1059 75.6676 36.8923C73.9115 30.0843 65.3384 31.7873 63.4137 37.4626C62.3336 40.6473 63.4006 45.0776 68.9891 49.9811C75.4443 51.3515 84.4616 50.4207 86.5445 43.8582C87.3034 41.4668 86.8178 39.1628 84.2177 37.8654C81.4383 36.4785 77.4109 36.8376 74.8591 38.4556ZM76.7296 36.5165C79.2823 35.756 82.4025 35.8167 84.776 37.0011C87.8381 38.5291 88.536 41.2824 87.6345 44.1229C85.358 51.2956 75.6799 52.4733 68.5662 50.9138C68.4555 50.8899 68.3605 50.8388 68.2881 50.7707C62.259 45.5241 61.1371 40.69 62.328 37.1784C64.5711 30.5645 74.6247 28.8799 76.7296 36.5165ZM53.2941 17.5721C52.9286 18.0969 52.4786 18.5735 51.9165 18.98C53.2363 18.8914 54.546 18.6417 55.7888 18.1959C56.7171 17.8629 57.6083 17.4199 58.4384 16.852C59.313 16.2536 59.4544 16.2119 58.3778 16.5379C57.8422 16.7002 57.3013 16.8472 56.7668 16.9769C55.5238 17.2786 54.3182 17.4861 53.2941 17.5721ZM49.8921 19.9582C49.3746 20.1148 48.8004 20.2342 48.1619 20.3103C49.5334 23.0261 52.2881 22.7313 55.0079 22.4397C55.6494 22.3709 56.2891 22.3024 56.9388 22.2682C57.3236 22.248 57.4425 22.1575 56.9349 22.0077C56.6217 21.9152 56.1253 21.9316 55.5454 21.9508C53.8442 22.0071 51.6211 22.0804 49.8921 19.9582ZM39.7796 18.9403C39.2414 18.5428 38.8096 18.0804 38.4578 17.5728C36.8565 17.437 35.204 17.0331 33.6666 16.5388C32.7075 16.2305 32.8019 16.2524 33.5955 16.799C35.3814 18.0291 37.5028 18.7207 39.7796 18.9403ZM44.0227 20.3509C43.3633 20.2935 42.7681 20.1939 42.2308 20.057C40.514 22.0781 38.3341 22.0063 36.6597 21.9508C36.0428 21.9304 35.5203 21.9131 35.2125 22.0268C34.7843 22.1848 34.901 22.2499 35.2193 22.2658C35.8853 22.299 36.5404 22.3693 37.1972 22.4397C39.9035 22.7298 42.6443 23.0233 44.0227 20.3509ZM43.4473 19.2755C43.3541 19.1325 43.2799 18.9789 43.2233 18.8163C42.671 17.2302 43.9561 14.9888 44.8999 13.6875C44.1173 13.0579 43.1524 12.6099 41.9912 12.2385C40.7767 11.85 39.3388 11.5429 37.6742 11.2047C38.3726 14.6644 38.5813 18.4959 43.4473 19.2755ZM40.8019 1.65347C39.9748 1.69733 39.1859 1.80078 38.5248 2.0151C37.5244 2.33945 36.821 2.94572 36.7816 4.0562C36.7156 5.91989 36.2837 6.40661 35.8613 6.88278C35.2538 7.56732 35.0222 8.60374 35.6849 9.32214C36.0106 9.67523 36.5427 9.95555 37.2944 10.1074C39.2645 10.5053 40.9423 10.8453 42.3767 11.3041C43.2953 11.5979 44.1091 11.939 44.8263 12.3709C44.3956 10.8913 43.0475 10.4 41.7092 9.91262C39.725 9.19004 37.7584 8.47384 37.8514 5.42746C37.8688 4.77461 38.9987 4.79785 38.9813 5.45082C38.9091 7.81595 40.519 8.40228 42.1434 8.99382C43.8507 9.61561 45.5713 10.2422 45.9977 12.3783C46.9767 11.3834 48.1913 10.5148 49.4726 9.84076C51.2775 8.82341 52.7001 8.45775 53.8479 8.16278C54.8839 7.8966 55.7984 7.68913 56.4317 6.84807C58.2745 4.40016 54.366 2.51943 52.0368 2.16107C52.4174 2.53324 52.747 2.95433 53.0118 3.42503C53.3411 4.01139 52.3264 4.45129 51.9971 3.86496C50.4111 1.04541 45.8728 0.306849 42.8434 1.62224C41.7506 2.09675 40.8754 2.83796 40.4507 3.83312C40.1914 4.44503 39.1323 4.09867 39.3916 3.48665C39.6994 2.76552 40.1875 2.15372 40.8019 1.65347ZM44.1548 5.37346C44.6089 5.89003 43.7138 6.49737 43.2597 5.98078C40.8816 3.27228 46.5591 0.90307 49.0796 3.19112C50.2431 4.24741 49.5613 5.9765 48.0168 6.37913C47.2521 6.5785 46.3349 6.49843 45.6977 6.05218C45.2409 5.73219 44.9938 5.25201 45.135 4.74285C45.3098 4.1079 46.4087 4.34136 46.2339 4.97643C46.0988 5.46433 47.2963 5.52995 47.6978 5.42528C48.4193 5.23721 48.8381 4.40106 48.2687 3.88411C46.7529 2.50807 42.6873 3.70198 44.1548 5.37346ZM42.9212 8.21896C42.1926 8.0807 42.4319 7.1074 43.1605 7.24566C45.4968 7.69342 51.0488 7.67434 53.2728 5.85413C54.0978 5.17885 54.0998 4.79685 54.2473 4.34648C54.3935 3.90006 55.263 4.13563 55.2061 4.59955C55.1296 5.22474 54.5549 6.13951 54.0991 6.51914C51.5473 8.64457 45.754 8.76203 42.9212 8.21896ZM45.3194 20.3475V30.2143C45.7349 29.8103 46.2042 29.3892 46.7039 29.0496V20.4207C46.1767 20.4429 45.7174 20.4162 45.3194 20.3475ZM47.8131 19.3882C52.7339 18.8685 53.3532 15.2657 53.9131 12.1584C54.1229 10.9939 54.3225 9.88694 54.7157 8.97197C51.4137 9.86733 48.2559 11.1869 46.2207 13.737C45.3762 14.7951 43.8334 17.1753 44.3045 18.5281C44.4227 18.8677 44.6938 19.1359 45.1716 19.2865C45.6524 19.4381 47.1623 19.4569 47.8131 19.3882ZM46.7039 37.5998V36.6032C46.4112 36.9468 46.1152 37.2886 45.8154 37.6275C46.1197 37.6161 46.4168 37.6069 46.7039 37.5998ZM47.6763 42.0764C49.0026 42.0766 50.6827 42.1465 51.7061 41.4639C53.612 40.1928 50.4151 38.6248 48.8882 38.5851C45.939 38.5084 40.6684 38.7271 37.8798 39.5098C36.3485 39.9397 35.4842 40.4389 34.9238 41.2017C33.6287 42.9645 32.928 48.3389 32.8657 50.424C32.7866 53.0718 33.1138 54.3694 34.5064 56.5775C36.9221 60.4079 41.1608 64.1221 44.1851 67.9029L44.1851 59.6129C44.1851 59.044 44.2011 58.5039 44.1109 57.9386C44.0463 57.5337 43.9448 57.1099 43.846 56.6972C43.6601 55.9208 43.4828 55.1804 43.5413 54.5639C43.6377 53.5483 44.2362 52.9108 45.9705 53.0379C46.2824 53.0604 46.5146 53.301 46.4889 53.5751C46.4715 53.7598 46.4173 53.6846 46.6038 53.8414C47.202 54.3441 48.0179 54.7373 48.8208 54.9163C49.5978 55.0895 50.6015 55.1141 50.5458 54.1764C50.5184 53.7163 50.2538 53.0816 49.7782 52.2078C49.1226 51.0028 48.2663 50.3128 47.3294 49.9145C46.372 49.5075 45.304 49.3909 44.2716 49.3431C39.6905 49.1312 38.8711 53.2694 38.0128 56.305C37.8321 56.94 36.7332 56.6986 36.9139 56.0636C38.014 52.2226 38.8171 48.4759 44.0678 48.0343C45.482 47.9154 47.0901 48.1061 48.557 48.6332C49.7381 49.0576 50.799 49.2348 51.2214 49.2299C53.1214 49.2079 52.2526 47.5407 51.042 46.7996C49.9214 46.1136 48.5594 45.3227 47.6476 45.0401C45.6728 44.428 40.3119 44.6547 38.4027 45.2541C37.0995 45.6632 36.5338 46.5655 36.2604 47.7088C35.9206 49.1302 35.6394 50.6817 35.5432 52.1319C35.5025 52.7847 34.3725 52.7304 34.4133 52.0774C34.5129 50.5744 34.8004 48.9795 35.1527 47.5064C35.5095 46.0142 36.334 44.8456 38.0216 44.3159C38.4062 44.1951 39.0351 44.0712 39.8061 43.9652C40.7188 42.0553 45.4806 42.0764 47.6763 42.0764ZM46.7039 43.8357V43.0816C46.2389 43.0906 45.7735 43.1034 45.3194 43.124V43.7113C45.7987 43.7364 46.2645 43.7769 46.7039 43.8357ZM46.7199 55.1771C46.1958 54.8815 45.7074 54.5107 45.3194 54.0716L45.3194 89.4153C45.3194 90.2161 46.7039 90.2161 46.7039 89.4153L46.7199 55.1771ZM44.1851 43.6798V43.1961C43.0563 43.2927 42.0759 43.4662 41.4591 43.7871C42.3641 43.7138 43.276 43.6749 44.1851 43.6798ZM44.3053 37.6992C44.6475 37.3348 45.1952 36.7169 45.7947 36.0138C46.6201 35.0456 47.3869 34.0521 48.1998 33.0797C49.3021 31.7615 50.5027 30.3256 49.2847 29.511C48.7432 29.1489 48.1416 29.3849 47.6415 29.6813C46.8285 30.1633 45.5006 31.4974 44.4858 32.5119C42.6204 34.3764 40.5273 36.1721 38.9799 38.2503C40.7144 37.95 42.5388 37.8008 44.3053 37.6992Z" fill="#B98645" fill-opacity="0.7"/>
</svg>
