<svg width="178" height="179" viewBox="0 0 178 179" fill="none" xmlns="http://www.w3.org/2000/svg">
<g id="Group 1">
<circle id="Ellipse 1" cx="89" cy="89.4043" r="88.9362" fill="#D9D9D9"/>
<path id="Vector" d="M89 29.24C96.9783 29.24 104.63 32.4094 110.271 38.0509C115.913 43.6924 119.082 51.3439 119.082 59.3221C119.082 67.3004 115.913 74.9519 110.271 80.5934C104.63 86.2349 96.9783 89.4043 89 89.4043C81.0217 89.4043 73.3702 86.2349 67.7287 80.5934C62.0872 74.9519 58.9179 67.3004 58.9179 59.3221C58.9179 51.3439 62.0872 43.6924 67.7287 38.0509C73.3702 32.4094 81.0217 29.24 89 29.24ZM89 104.445C122.241 104.445 149.164 117.907 149.164 134.527V149.569H28.8357V134.527C28.8357 117.907 55.7592 104.445 89 104.445Z" fill="black"/>
</g>
</svg>
