<svg width="45" height="45" viewBox="0 0 45 45" fill="none" xmlns="http://www.w3.org/2000/svg">
<path id="Vector" d="M44.4156 28.1475C43.3645 31.9093 41.3468 35.3303 38.5633 38.0702C35.7797 40.8101 32.3272 42.7735 28.5494 43.7651C24.7715 44.7566 20.7998 44.7417 17.0295 43.7219C13.2592 42.7021 9.82152 40.7129 7.05857 37.9522C4.29561 35.1914 2.30361 31.7554 1.28074 27.9859C0.257867 24.2164 0.239763 20.2448 1.22823 16.4661C2.21669 12.6874 4.17728 9.23336 6.91495 6.44756C9.65263 3.66177 13.072 1.64131 16.8329 0.587162C17.1084 0.498437 17.4015 0.478758 17.6865 0.529855C17.9714 0.580952 18.2394 0.701261 18.467 0.880206C18.6945 1.05915 18.8746 1.29125 18.9915 1.55611C19.1083 1.82097 19.1583 2.11047 19.137 2.39917C19.1364 2.53612 19.1138 2.67209 19.0699 2.80183C18.1824 6.00517 18.1605 9.3866 19.0064 12.6012C19.8524 15.8157 21.5358 18.7484 23.8851 21.1C26.2344 23.4515 29.1654 25.1378 32.3792 25.9869C35.5929 26.8359 38.9744 26.8173 42.1786 25.9329L42.6707 25.8434C43.0599 25.8403 43.4398 25.9627 43.7541 26.1923C44.0683 26.422 44.3003 26.7467 44.4156 27.1185C44.5281 27.4523 44.5281 27.8137 44.4156 28.1475Z" fill="#2C4069"/>
</svg>
